<svg xmlns="http://www.w3.org/2000/svg" aria-hidden="true" style="position:absolute;width:0;height:0;overflow:hidden">
  <defs>
    <symbol id="icon-eye-on" viewBox="0 0 64 64">
      <path stroke-linejoin="round" stroke-linecap="round" stroke-miterlimit="4" stroke-width="4.16" d="M2.666 32c0 0 10.667-21.333 29.333-21.333s29.333 21.333 29.333 21.333-10.667 21.333-29.333 21.333c-18.667 0-29.333-21.333-29.333-21.333z"></path>
      <path stroke-linejoin="round" stroke-linecap="round" stroke-miterlimit="4" stroke-width="4.16" d="M32 40c4.418 0 8-3.582 8-8s-3.582-8-8-8c-4.418 0-8 3.582-8 8s3.582 8 8 8z"></path>
    </symbol>
    <symbol id="icon-eye-off" viewBox="0 0 64 64">
      <path stroke-linejoin="round" stroke-linecap="round" stroke-miterlimit="4" stroke-width="4.16" d="M47.84 47.84c-4.558 3.475-10.109 5.4-15.84 5.493-18.667 0-29.333-21.333-29.333-21.333 3.317-6.182 7.918-11.582 13.493-15.84M26.4 11.307c1.836-0.43 3.715-0.644 5.6-0.64 18.667 0 29.333 21.333 29.333 21.333-1.619 3.028-3.549 5.879-5.76 8.507M37.653 37.653c-0.733 0.786-1.616 1.416-2.597 1.853s-2.041 0.672-3.115 0.691c-1.074 0.019-2.141-0.179-3.137-0.581s-1.901-1.001-2.661-1.761c-0.76-0.76-1.358-1.664-1.761-2.66s-0.6-2.063-0.581-3.137c0.019-1.074 0.254-2.134 0.691-3.115s1.068-1.864 1.854-2.597"></path>
      <path stroke-linejoin="round" stroke-linecap="round" stroke-miterlimit="4" stroke-width="4.16" d="M2.666 2.667l58.667 58.666"></path>
    </symbol>
  </defs>
</svg>