<svg xmlns="http://www.w3.org/2000/svg" aria-hidden="true" style="position:absolute;width:0;height:0;overflow:hidden">
  <defs>
    <symbol id="icon-eye-on" viewBox="0 0 64 64">
      <path stroke-linejoin="round" stroke-linecap="round" stroke-miterlimit="4" stroke-width="4.16" d="M2.666 32c0 0 10.667-21.333 29.333-21.333s29.333 21.333 29.333 21.333-10.667 21.333-29.333 21.333c-18.667 0-29.333-21.333-29.333-21.333z"></path>
      <path stroke-linejoin="round" stroke-linecap="round" stroke-miterlimit="4" stroke-width="4.16" d="M32 40c4.418 0 8-3.582 8-8s-3.582-8-8-8c-4.418 0-8 3.582-8 8s3.582 8 8 8z"></path>
    </symbol>
    <symbol id="icon-eye-off" viewBox="0 0 64 64">
      <path stroke-linejoin="round" stroke-linecap="round" stroke-miterlimit="4" stroke-width="4.16" d="M47.84 47.84c-4.558 3.475-10.109 5.4-15.84 5.493-18.667 0-29.333-21.333-29.333-21.333 3.317-6.182 7.918-11.582 13.493-15.84M26.4 11.307c1.836-0.43 3.715-0.644 5.6-0.64 18.667 0 29.333 21.333 29.333 21.333-1.619 3.028-3.549 5.879-5.76 8.507M37.653 37.653c-0.733 0.786-1.616 1.416-2.597 1.853s-2.041 0.672-3.115 0.691c-1.074 0.019-2.141-0.179-3.137-0.581s-1.901-1.001-2.661-1.761c-0.76-0.76-1.358-1.664-1.761-2.66s-0.6-2.063-0.581-3.137c0.019-1.074 0.254-2.134 0.691-3.115s1.068-1.864 1.854-2.597"></path>
      <path stroke-linejoin="round" stroke-linecap="round" stroke-miterlimit="4" stroke-width="4.16" d="M2.666 2.667l58.667 58.666"></path>
    </symbol>
    <symbol id="icon-logout" viewBox="0 0 64 64">
      <path d="M16 5.333c-2.122 0-4.157 0.843-5.657 2.343s-2.343 3.535-2.343 5.657v37.333c0 2.122 0.843 4.157 2.343 5.657s3.535 2.343 5.657 2.343h16c2.122 0 4.157-0.843 5.657-2.343s2.343-3.535 2.343-5.657v-37.333c0-2.122-0.843-4.157-2.343-5.657s-3.535-2.343-5.657-2.343h-16zM43.448 19.448c0.5-0.5 1.178-0.781 1.885-0.781s1.385 0.281 1.886 0.781l10.666 10.667c0.5 0.5 0.781 1.178 0.781 1.885s-0.281 1.385-0.781 1.885l-10.666 10.667c-0.503 0.486-1.177 0.754-1.876 0.748s-1.368-0.286-1.862-0.781c-0.494-0.494-0.775-1.164-0.781-1.863s0.263-1.373 0.748-1.876l6.115-6.115h-22.896c-0.707 0-1.386-0.281-1.886-0.781s-0.781-1.178-0.781-1.886c0-0.707 0.281-1.386 0.781-1.886s1.178-0.781 1.886-0.781h22.896l-6.115-6.115c-0.5-0.5-0.781-1.178-0.781-1.885s0.281-1.385 0.781-1.885z"></path>
    </symbol>
    <symbol id="icon-mobile-menu" viewBox="0 0 64 64">
      <path stroke-linejoin="round" stroke-linecap="round" stroke-miterlimit="4" stroke-width="4" d="M8 16.003h48M8 32.003h48M8 48.003h48"></path>
    </symbol>
    <symbol id="icon-dashboard" viewBox="0 0 64 64">
      <path d="M10.667 34.667h16c1.467 0 2.667-1.2 2.667-2.667v-21.333c0-1.467-1.2-2.667-2.667-2.667h-16c-1.467 0-2.667 1.2-2.667 2.667v21.333c0 1.467 1.2 2.667 2.667 2.667zM10.667 56h16c1.467 0 2.667-1.2 2.667-2.667v-10.666c0-1.467-1.2-2.667-2.667-2.667h-16c-1.467 0-2.667 1.2-2.667 2.667v10.666c0 1.467 1.2 2.667 2.667 2.667zM37.333 56h16c1.467 0 2.667-1.2 2.667-2.667v-21.333c0-1.467-1.2-2.667-2.667-2.667h-16c-1.467 0-2.667 1.2-2.667 2.667v21.333c0 1.467 1.2 2.667 2.667 2.667zM34.667 10.667v10.667c0 1.467 1.2 2.667 2.667 2.667h16c1.467 0 2.667-1.2 2.667-2.667v-10.667c0-1.467-1.2-2.667-2.667-2.667h-16c-1.467 0-2.667 1.2-2.667 2.667z"></path>
    </symbol>
    <symbol id="icon-orders" viewBox="0 0 64 64">
      <path d="M18.666 48c-2.933 0-5.307 2.4-5.307 5.334s2.373 5.333 5.307 5.333 5.333-2.4 5.333-5.333c0-2.934-2.4-5.334-5.333-5.334zM2.666 8c0 1.467 1.2 2.667 2.667 2.667h2.667l9.6 20.24-3.6 6.507c-1.947 3.573 0.613 7.92 4.667 7.92h29.333c1.467 0 2.667-1.2 2.667-2.667s-1.2-2.667-2.667-2.667h-29.333l2.933-5.333h19.867c2 0 3.76-1.093 4.667-2.747l9.546-17.307c0.225-0.404 0.34-0.86 0.335-1.322s-0.132-0.915-0.366-1.314-0.569-0.729-0.97-0.959c-0.401-0.23-0.856-0.351-1.318-0.351h-39.467l-1.787-3.813c-0.214-0.455-0.554-0.84-0.979-1.109s-0.918-0.412-1.421-0.411h-4.373c-1.467 0-2.667 1.2-2.667 2.667zM45.333 48c-2.934 0-5.307 2.4-5.307 5.334s2.373 5.333 5.307 5.333c2.933 0 5.333-2.4 5.333-5.333s-2.4-5.334-5.333-5.334z"></path>
      </symbol>
    <symbol id="icon-products" viewBox="0 0 64 64">
      <path d="M40 25.683v-15.016h2.666c0.707 0 1.386-0.281 1.886-0.781s0.781-1.178 0.781-1.886-0.281-1.386-0.781-1.886c-0.5-0.5-1.178-0.781-1.886-0.781h-21.333c-0.707 0-1.386 0.281-1.886 0.781s-0.781 1.178-0.781 1.886c0 0.707 0.281 1.386 0.781 1.886s1.178 0.781 1.886 0.781h2.667v15.016l-13.939 20.483c-3.613 5.312 0.192 12.501 6.613 12.501h30.648c6.427 0 10.23-7.189 6.614-12.501l-13.936-20.483z"></path>
    </symbol> 
      <symbol id="icon-suppliers" viewBox="0 0 64 64">
      <path d="M42.667 37.333h-8v8h-5.333v-8h-8v-5.333h8v-8h5.333v8h8zM56 13.333h-7.067l3.067-8.4-6.267-2.267-3.893 10.667h-33.84v5.333l5.333 16-5.333 16v5.333h48v-5.333l-5.333-16 5.333-16v-5.333z"></path>
    </symbol>
    <symbol id="icon-customers" viewBox="0 0 64 64">
      <path d="M42.667 45.333v5.334h-37.333v-5.334c0 0 0-10.667 18.667-10.667s18.667 10.667 18.667 10.667zM33.334 20c0-1.846-0.547-3.65-1.573-5.185s-2.483-2.731-4.189-3.438c-1.705-0.706-3.582-0.891-5.393-0.531s-3.474 1.249-4.779 2.554c-1.305 1.305-2.194 2.968-2.554 4.779s-0.175 3.687 0.531 5.393c0.706 1.705 1.903 3.163 3.438 4.189s3.339 1.573 5.185 1.573c2.475 0 4.849-0.983 6.6-2.734s2.734-4.124 2.734-6.6zM42.507 34.667c1.64 1.269 2.981 2.881 3.93 4.724s1.483 3.871 1.564 5.943v5.334h10.666v-5.334c0 0 0-9.68-16.16-10.667zM40.001 10.667c-1.836-0.010-3.631 0.539-5.147 1.573 1.62 2.263 2.491 4.977 2.491 7.76s-0.871 5.497-2.491 7.76c1.516 1.035 3.311 1.584 5.147 1.573 2.475 0 4.849-0.983 6.6-2.734s2.734-4.124 2.734-6.6c0-2.475-0.983-4.849-2.734-6.6s-4.124-2.734-6.6-2.734z"></path>
    </symbol>
    <symbol id="icon-cross" viewBox="0 0 64 64">
      <path stroke-linejoin="round" stroke-linecap="round" stroke-miterlimit="4" stroke-width="4" d="M48 16l-32 32"></path>
      <path stroke-linejoin="round" stroke-linecap="round" stroke-miterlimit="4" stroke-width="4" d="M16 16l32 32"></path>
    </symbol>
    <symbol id="icon-stat-products" viewBox="0 0 64 64">
      <path stroke-linejoin="round" stroke-linecap="round" stroke-miterlimit="4" stroke-width="4.8" d="M41.143 34.286c11.361 0 20.572-4.093 20.572-9.143s-9.21-9.143-20.572-9.143c-11.361 0-20.572 4.093-20.572 9.143s9.21 9.143 20.572 9.143z"></path>
      <path stroke-linejoin="round" stroke-linecap="round" stroke-miterlimit="4" stroke-width="4.8" d="M20.572 25.143v27.429c0 5.029 9.143 9.143 20.572 9.143s20.572-4.114 20.572-9.143v-27.429"></path>
      <path stroke-linejoin="round" stroke-linecap="round" stroke-miterlimit="4" stroke-width="4.8" d="M61.715 38.857c0 5.029-9.143 9.143-20.572 9.143s-20.571-4.114-20.571-9.143M40.686 6.857c-5.342-3.297-11.56-4.891-17.829-4.571-11.383 0-20.571 4.114-20.571 9.143 0 2.697 2.651 5.12 6.857 6.857"></path>
      <path stroke-linejoin="round" stroke-linecap="round" stroke-miterlimit="4" stroke-width="4.8" d="M9.143 45.714c-4.206-1.737-6.857-4.16-6.857-6.857v-27.429"></path>
      <path stroke-linejoin="round" stroke-linecap="round" stroke-miterlimit="4" stroke-width="4.8" d="M9.143 32c-4.206-1.737-6.857-4.16-6.857-6.857"></path>
    </symbol>
    <symbol id="icon-stat-users" viewBox="0 0 64 64">
      <path stroke-linejoin="round" stroke-linecap="round" stroke-miterlimit="4" stroke-width="4.8" d="M56 53.333c0-4.645-4.453-8.595-10.667-10.061M40 53.333c0-5.893-7.163-10.667-16-10.667s-16 4.773-16 10.667M40 34.667c2.829 0 5.542-1.124 7.542-3.124s3.124-4.713 3.124-7.542-1.124-5.542-3.124-7.543c-2-2-4.713-3.124-7.542-3.124M24 34.667c-2.829 0-5.542-1.124-7.542-3.124s-3.124-4.713-3.124-7.542 1.124-5.542 3.124-7.543c2-2 4.713-3.124 7.542-3.124s5.542 1.124 7.542 3.124c2 2 3.124 4.713 3.124 7.543s-1.124 5.542-3.124 7.542c-2 2-4.713 3.124-7.542 3.124z"></path>
    </symbol>
    <symbol id="icon-filter" viewBox="0 0 64 64">
      <path stroke-linejoin="round" stroke-linecap="round" stroke-miterlimit="4" stroke-width="6.8571" d="M58.667 8h-53.333l21.333 25.227v17.44l10.667 5.334v-22.773l21.333-25.227z"></path>
    </symbol>
    <symbol id="icon-plus" viewBox="0 0 64 64">
      <path d="M13.333 34.667h16v16c0 1.472 1.195 2.667 2.667 2.667s2.667-1.195 2.667-2.667v-16h16c1.472 0 2.667-1.195 2.667-2.667s-1.195-2.667-2.667-2.667h-16v-16c0-1.472-1.195-2.667-2.667-2.667s-2.667 1.195-2.667 2.667v16h-16c-1.472 0-2.667 1.195-2.667 2.667s1.195 2.667 2.667 2.667z"></path>
    </symbol>
    <symbol id="icon-edit" viewBox="0 0 64 64">
      <path stroke-linejoin="round" stroke-linecap="round" stroke-miterlimit="4" stroke-width="5.2" d="M45.339 8.004c0.7-0.7 1.532-1.256 2.447-1.635s1.896-0.574 2.886-0.574c0.99 0 1.971 0.195 2.886 0.574s1.746 0.935 2.447 1.635 1.256 1.532 1.635 2.447c0.379 0.915 0.574 1.896 0.574 2.886s-0.195 1.971-0.574 2.886c-0.379 0.915-0.934 1.747-1.635 2.447l-36 36-14.667 4 4-14.666 36-36z"></path>
    </symbol>
    <symbol id="icon-trash" viewBox="0 0 64 64">
      <path stroke-linejoin="round" stroke-linecap="round" stroke-miterlimit="4" stroke-width="5.2" d="M8 16h48"></path>
      <path stroke-linejoin="round" stroke-linecap="round" stroke-miterlimit="4" stroke-width="5.2" d="M50.667 16v37.333c0 1.414-0.562 2.771-1.562 3.771s-2.356 1.562-3.771 1.562h-26.667c-1.415 0-2.771-0.562-3.771-1.562s-1.562-2.357-1.562-3.771v-37.333M21.333 16v-5.333c0-1.415 0.562-2.771 1.562-3.771s2.357-1.562 3.771-1.562h10.667c1.414 0 2.771 0.562 3.771 1.562s1.562 2.357 1.562 3.771v5.333"></path>
      <path stroke-linejoin="round" stroke-linecap="round" stroke-miterlimit="4" stroke-width="5.2" d="M26.667 29.333v16"></path>
      <path stroke-linejoin="round" stroke-linecap="round" stroke-miterlimit="4" stroke-width="5.2" d="M37.333 29.333v16"></path>
    </symbol>
  </defs>
</svg>